<svg  xmlns="http://www.w3.org/2000/svg">
    <symbol id="title-line" xmlns="http://www.w3.org/2000/svg" xmlns:xlink="http://www.w3.org/1999/xlink" x="0px" y="0px"
	 viewBox="0 0 410.986 410.986" enable-background="new 0 0 410.986 410.986;" xml:space="preserve">
        <g id="Layer">
			<g id="Layer">
				<path id="Layer" class="shp0" d="M355.11 34.91C340.31 34.91 332.77 28.01 326.12 21.92C320.11 16.42 315.37 12.08 305.23 12.08C295.09 12.08 290.35 16.42 284.34 21.92C277.69 28.01 270.16 34.91 255.36 34.91C240.56 34.91 233.02 28.01 226.37 21.92C220.36 16.42 215.62 12.08 205.48 12.08C195.35 12.08 190.6 16.42 184.6 21.92C177.95 28.01 170.41 34.91 155.61 34.91C140.81 34.91 133.28 28.01 126.63 21.92C120.62 16.42 115.88 12.08 105.74 12.08C95.61 12.08 90.87 16.42 84.86 21.92C78.21 28.01 70.67 34.91 55.87 34.91C41.07 34.91 33.54 28.01 26.88 21.92C20.88 16.42 16.14 12.08 6 12.08C2.69 12.08 0 9.39 0 6.08C0 2.77 2.69 0.08 6 0.08C20.8 0.08 28.34 6.98 34.99 13.07C40.99 18.56 45.74 22.91 55.87 22.91C66.01 22.91 70.75 18.56 76.76 13.07C83.41 6.98 90.95 0.08 105.74 0.08C120.54 0.08 128.08 6.98 134.73 13.07C140.73 18.56 145.48 22.91 155.61 22.91C165.75 22.91 170.49 18.56 176.5 13.07C183.15 6.98 190.68 0.08 205.48 0.08C220.28 0.08 227.82 6.98 234.47 13.07C240.48 18.56 245.22 22.91 255.36 22.91C265.49 22.91 270.24 18.56 276.24 13.07C282.89 6.98 290.43 0.08 305.23 0.08C320.03 0.08 327.57 6.98 334.22 13.07C340.22 18.56 344.97 22.91 355.1 22.91C365.24 22.91 369.99 18.56 375.99 13.07C382.65 6.98 390.18 0.08 404.99 0.08C408.3 0.08 410.99 2.77 410.99 6.08C410.99 9.39 408.3 12.08 404.99 12.08C394.85 12.08 390.1 16.42 384.1 21.92C377.44 28.01 369.91 34.91 355.11 34.91Z" />
			</g>
		</g>
		<g id="Layer">
		</g>
		<g id="Layer">
		</g>
		<g id="Layer">
		</g>
		<g id="Layer">
		</g>
		<g id="Layer">
		</g>
		<g id="Layer">
		</g>
		<g id="Layer">
		</g>
		<g id="Layer">
		</g>
		<g id="Layer">
		</g>
		<g id="Layer">
		</g>
		<g id="Layer">
		</g>
		<g id="Layer">
		</g>
		<g id="Layer">
		</g>
		<g id="Layer">
		</g>
		<g id="Layer">
		</g>
    </symbol>

	<symbol id="home-heart" viewBox="0 0 512 512.00025" xmlns="http://www.w3.org/2000/svg"><path d="m266 492c0 11.046875-8.953125 20-20 20h-226c-11.046875 0-20-8.953125-20-20v-275.332031c0-5.9375 2.636719-11.566407 7.195312-15.363281l236-196.667969c7.417969-6.183594 18.191407-6.183594 25.609376 0l236 196.667969c8.484374 7.070312 9.628906 19.679687 2.558593 28.167968-7.070312 8.484375-19.683593 9.628906-28.167969 2.558594l-223.195312-185.996094-216 180v245.964844h206c11.046875 0 20 8.953125 20 20zm214.339844-54.105469c-21.945313 26.457031-54.714844 50.679688-97.402344 72-5.628906 2.808594-12.246094 2.808594-17.875 0-42.6875-21.320312-75.457031-45.542969-97.398438-72-65.140624-78.527343-19.78125-165.195312 47.335938-165.195312 26.746094 0 46.421875 10.949219 59 21.226562 12.578125-10.277343 32.253906-21.226562 59-21.226562 67.246094 0 112.316406 86.859375 47.339844 165.195312zm-47.339844-125.195312c-27.667969 0-42.191406 20.742187-42.332031 20.949219-8.304688 12.527343-25.816407 11.761718-33.285157.082031-1.226562-1.722657-15.585937-21.03125-42.382812-21.03125-43.109375 0-80.136719 83.078125 59 156.8125 139.136719-73.734375 102.117188-156.8125 59-156.8125zm0 0"/>
	</symbol>

	<symbol id="ruler" enable-background="new 0 0 512 512" viewBox="0 0 512 512" xmlns="http://www.w3.org/2000/svg">
		<g><path d="m497 337h-322v-322c0-8.284-6.716-15-15-15h-145c-8.284 0-15 6.716-15 15v482c0 8.284 6.716 15 15 15h482c8.284 0 15-6.716 15-15v-145c0-8.284-6.716-15-15-15zm-467-307h115v43h-33c-8.284 0-15 6.716-15 15s6.716 15 15 15h33v34h-17c-8.284 0-15 6.716-15 15s6.716 15 15 15h17v34h-33c-8.284 0-15 6.716-15 15s6.716 15 15 15h33v34h-17c-8.284 0-15 6.716-15 15s6.716 15 15 15h17v42h-115zm0 337h115v115h-115zm452 115h-307v-115h42v33c0 8.284 6.716 15 15 15s15-6.716 15-15v-33h34v17c0 8.284 6.716 15 15 15s15-6.716 15-15v-17h34v33c0 8.284 6.716 15 15 15s15-6.716 15-15v-33h34v17c0 8.284 6.716 15 15 15s15-6.716 15-15v-17h43z"/><path d="m102.71 421.07c-1.87-8.926-10.711-13.914-19.07-11.42-8.616 2.808-12.195 11.286-9.99 18.71 2.843 8.695 11.36 12.182 18.71 9.99 7.919-2.582 11.71-10.014 10.35-17.28z"/></g>
	</symbol>

	<symbol id="key" xmlns="http://www.w3.org/2000/svg"
	 viewBox="0 0 512.002 512.002" enable-background="new 0 0 512.002 512.002" xml:space="preserve">
		<g>
			<g>
				<circle cx="364" cy="140.062" r="32"/>
			</g>
		</g>
		<g>
			<g>
				<path d="M506.478,165.937c-10.68-27.194-30.264-66.431-62.915-98.927c-32.535-32.384-71.356-51.408-98.194-61.666
					c-29.464-11.261-62.945-4.163-85.295,18.082l-78.538,78.17c-23.281,23.171-29.991,58.825-16.698,88.72
					c4.122,9.272,8.605,18.341,13.395,27.103L5.858,389.793C2.107,393.544,0,398.631,0,403.936v88c0,11.046,8.954,20,20,20h88
					c11.046,0,20-8.954,20-20v-36l36-0.001c11.046,0,20-8.954,20-20v-35.999h36c11.046,0,20-8.954,20-20c0-11.046-8.954-20-20-20h-56
					c-11.046,0-20,8.954-20,20v35.999l-36,0.001c-11.046,0-20,8.954-20,20v36H40V412.22l177.355-177.354
					c6.516-6.516,7.737-16.639,2.958-24.517c-6.931-11.424-13.298-23.632-18.923-36.285c-6.599-14.841-3.237-32.57,8.366-44.119
					l78.537-78.169c11.213-11.159,28.011-14.718,42.798-9.068c23.222,8.876,56.69,25.214,84.256,52.652
					c27.735,27.604,44.62,61.567,53.9,85.197c5.791,14.748,2.272,31.503-8.965,42.687l-79.486,79.114
					c-11.575,11.519-28.851,14.887-44.016,8.58c-12.507-5.202-24.62-11.382-36-18.367c-9.413-5.778-21.729-2.83-27.507,6.584
					c-5.778,9.414-2.831,21.73,6.583,27.508c13.152,8.072,27.136,15.207,41.562,21.207c30.142,12.539,64.525,5.8,87.595-17.161
					l79.486-79.113C511.044,229.157,518.101,195.534,506.478,165.937z"/>
			</g>
		</g>
		<g>
		</g>
		<g>
		</g>
		<g>
		</g>
		<g>
		</g>
		<g>
		</g>
		<g>
		</g>
		<g>
		</g>
		<g>
		</g>
		<g>
		</g>
		<g>
		</g>
		<g>
		</g>
		<g>
		</g>
		<g>
		</g>
		<g>
		</g>
		<g>
		</g>
	</symbol>


	<symbol id="homes" viewBox="0 -58 512 511" xmlns="http://www.w3.org/2000/svg">
		<path d="m506.144531 124.359375-118-118c-7.8125-7.8125-20.476562-7.8125-28.285156 0l-44.859375 44.855469-44.855469-44.855469c-7.8125-7.8125-20.476562-7.8125-28.285156 0l-44.859375 44.855469-44.859375-44.855469c-7.808594-7.8125-20.472656-7.8125-28.28125 0l-118 118c-3.753906 3.75-5.859375 8.835937-5.859375 14.140625v236c0 11.046875 8.953125 20 20 20h472c11.046875 0 20-8.953125 20-20v-236c0-5.304688-2.105469-10.390625-5.855469-14.140625zm-250.144531-75.574219c10.535156 10.535156 85.859375 85.859375 98 98v207.714844h-78v-216c0-5.304688-2.105469-10.390625-5.855469-14.140625l-44.859375-44.859375zm-216 98 98-98 98 98v207.714844h-38.664062v-98c0-11.046875-8.953126-20-20-20h-78.667969c-11.046875 0-20 8.953125-20 20v98h-38.667969zm117.335938 207.714844h-38.667969v-78h38.667969zm314.664062 0h-78v-216c0-5.304688-2.105469-10.390625-5.855469-14.140625l-44.859375-44.859375 30.714844-30.714844 98 98zm0 0"/>
	</symbol>

	<symbol xmlns="http://www.w3.org/2000/svg"
	 viewBox="0 0 512 512" enable-background="new 0 0 512 512;" xml:space="preserve">
		<g>
			<g>
				<path d="M310.28,419.829l-18.56-57.548c12.125-10.3,19.284-25.437,19.284-41.848c0-30.327-24.673-55-55-55s-55,24.673-55,55
					c0,16.411,7.159,31.548,19.284,41.848l-18.56,57.548c-3.123,9.684,4.116,19.604,14.276,19.604h80.001
					C306.18,439.433,313.398,429.498,310.28,419.829z M259.709,360.765l15.696,48.668h-38.803l15.696-48.668
					c2.269-7.033-0.924-14.671-7.522-17.998c-8.495-4.283-13.772-12.842-13.772-22.334c-0.001-13.785,11.214-25,24.999-25
					c13.785,0,25,11.215,25,25c0,9.492-5.277,18.051-13.772,22.334C260.632,346.094,257.44,353.732,259.709,360.765z"/>
			</g>
		</g>
		<g>
			<g>
				<path d="M487.256,254.671L267.254,5.078c-5.968-6.771-16.538-6.772-22.506,0.001c-5.44,6.172-211.543,239.996-220.001,249.591
					c-8.529,9.676-1.619,24.919,11.252,24.919h35V497c0,8.284,6.716,15,15,15h340.004c8.284,0,15-6.716,15-15V279.59h35
					C488.902,279.59,495.768,264.328,487.256,254.671z M426.005,249.59c-8.284,0-15,6.716-15,15V482H101.001V264.59
					c0-8.284-6.716-15-15-15H69.218c46.37-52.607,151.975-172.416,186.784-211.907L442.786,249.59H426.005z"/>
			</g>
		</g>
		<g>
		</g>
		<g>
		</g>
		<g>
		</g>
		<g>
		</g>
		<g>
		</g>
		<g>
		</g>
		<g>
		</g>
		<g>
		</g>
		<g>
		</g>
		<g>
		</g>
		<g>
		</g>
		<g>
		</g>
		<g>
		</g>
		<g>
		</g>
		<g>
		</g>
	</symbol>

	<symbol id="home-lock" enable-background="new 0 0 24 24" viewBox="0 0 24 24" xmlns="http://www.w3.org/2000/svg">
		<path d="m18.75 24h-13.5c-1.241 0-2.25-1.01-2.25-2.25v-8.25h-1.75c-.689 0-1.25-.561-1.25-1.25 0-.329.134-.652.367-.888l11.102-11.141c.281-.283.781-.283 1.063 0l11.1 11.14c.234.237.368.56.368.889 0 .689-.561 1.25-1.25 1.25h-1.75v8.25c0 1.24-1.009 2.25-2.25 2.25zm-16.901-12h1.901c.414 0 .75.336.75.75v9c0 .413.336.75.75.75h13.5c.414 0 .75-.337.75-.75v-9c0-.414.336-.75.75-.75h1.901l-10.151-10.187zm20.718.417h.01z"/><path d="m14.75 20h-5.5c-.965 0-1.75-.785-1.75-1.75v-3.5c0-.965.785-1.75 1.75-1.75h5.5c.965 0 1.75.785 1.75 1.75v3.5c0 .965-.785 1.75-1.75 1.75zm-5.5-5.5c-.138 0-.25.112-.25.25v3.5c0 .138.112.25.25.25h5.5c.138 0 .25-.112.25-.25v-3.5c0-.138-.112-.25-.25-.25z"/><path d="m13.75 14.5h-3.5c-.414 0-.75-.336-.75-.75v-2.25c0-1.379 1.122-2.5 2.5-2.5s2.5 1.121 2.5 2.5v2.25c0 .414-.336.75-.75.75zm-2.75-1.5h2v-1.5c0-.552-.449-1-1-1s-1 .448-1 1z"/>
	</symbol>

	<symbol id="safety" xmlns="http://www.w3.org/2000/svg"
	 viewBox="0 0 512 512" enable-background="new 0 0 512 512" xml:space="preserve">
		<g>
			<g>
				<path d="M482,363.58V316c0-49.388-15.925-96.331-46.053-135.753c-26.743-34.993-63.719-61.83-105.003-76.443
					C329.795,80.007,310.077,61,286,61h-60c-24.077,0-43.795,19.007-44.944,42.804c-41.284,14.613-78.26,41.45-105.003,76.443
					C45.925,219.669,30,266.612,30,316v47.58C12.541,369.772,0,386.445,0,406c0,24.813,20.187,45,45,45h422c24.813,0,45-20.187,45-45
					C512,386.445,499.459,369.772,482,363.58z M60,316c0-54.091,23.106-104.728,61-140.855V226c0,8.284,6.716,15,15,15s15-6.716,15-15
					v-74.383c9.452-6.034,19.477-11.298,30-15.679V256c0,8.284,6.716,15,15,15s15-6.716,15-15V114.932c0.001-0.041,0-0.082,0-0.123
					V106c0-8.271,6.729-15,15-15h60c8.271,0,15,6.729,15,15v8.805c0,0.043-0.001,0.085,0,0.128V256c0,8.284,6.716,15,15,15
					s15-6.716,15-15V135.938c10.523,4.382,20.548,9.646,30,15.679V226c0,8.284,6.716,15,15,15s15-6.716,15-15v-50.855
					c37.894,36.127,61,86.764,61,140.855v45H60V316z M467,421H45c-8.271,0-15-6.729-15-15s6.729-15,15-15h422c8.271,0,15,6.729,15,15
					S475.271,421,467,421z"/>
			</g>
		</g>
		<g>
		</g>
		<g>
		</g>
		<g>
		</g>
		<g>
		</g>
		<g>
		</g>
		<g>
		</g>
		<g>
		</g>
		<g>
		</g>
		<g>
		</g>
		<g>
		</g>
		<g>
		</g>
		<g>
		</g>
		<g>
		</g>
		<g>
		</g>
		<g>
		</g>
	</symbol>

	<symbol id="line-straight" xmlns="http://www.w3.org/2000/svg" viewBox="0 0 69 3">
			<style>
				tspan { white-space:pre }
				.shp0 { fill: #000000 } 
			</style>
			<path id="Layer" class="shp0" d="M0 0L3.94 0L3.94 3L0 3L0 0Z" />
			<path id="Layer" class="shp0" d="M8.06 0L15.88 0L15.88 3L8.06 3L8.06 0Z" />
			<path id="Layer" class="shp0" d="M19.06 0L34 0L34 3L19.06 3L19.06 0Z" />
			<path id="Layer" class="shp0" d="M37.06 0L68.99 0L68.99 3L37.06 3L37.06 0Z" />
	</symbol>

	<symbol id="customer-service" enable-background="new 0 0 512 512" viewBox="0 0 512 512" xmlns="http://www.w3.org/2000/svg">
		<path d="m474.182 404.877-133.92-43.899v-46.198c9.564-14.137 16.012-30.772 18.287-48.78h24.171c21.107 0 38.28-17.173 38.28-38.281v-41c0-7.99-2.464-15.413-6.667-21.557v-6.829c0-87.305-71.028-158.333-158.333-158.333s-158.333 71.028-158.333 158.333v6.829c-4.203 6.145-6.667 13.568-6.667 21.557v41c0 21.108 17.173 38.281 38.281 38.281h24.171c2.307 18.258 8.907 35.102 18.691 49.365v45.481l-134.326 44.031c-22.619 7.416-37.817 28.392-37.817 52.195v54.928h512v-54.928c0-23.803-15.198-44.779-37.818-52.195zm-272.039-60.201c15.698 10.139 34.142 15.991 53.857 15.991 19.886 0 38.476-5.956 54.262-16.257v20.7c-11.389 9.816-34.37 26.033-54.262 26.033-19.856 0-42.607-16.189-53.857-25.985zm127.32-169.484c-21.739-3.859-38.304-22.88-38.304-45.71h-30c0 25.606-20.832 46.438-46.438 46.438h-32.184v-14.458c0-40.507 32.955-73.462 73.463-73.462s73.463 32.955 73.463 73.462zm-146.926 31.773v-1.044h32.184c25.149 0 47.5-12.208 61.438-31.009 12.416 16.748 31.506 28.263 53.304 30.579v46.011c0 5.895-.62 11.634-1.759 17.165h-54.489v30h41.748c-13.402 19.405-34.841 32-58.962 32-40.507 0-73.463-35.513-73.463-79.165v-44.537zm208.463 20.754c0 4.566-3.715 8.281-8.281 8.281h-23.256v-57.562h23.256c4.566 0 8.281 3.715 8.281 8.281zm-135-197.719c67.445 0 122.905 52.297 127.958 118.469-.412-.013-.823-.031-1.239-.031h-24.074c-6.424-50.924-50.006-90.438-102.645-90.438s-96.221 39.514-102.646 90.438h-24.074c-.415 0-.827.018-1.239.031 5.054-66.172 60.514-118.469 127.959-118.469zm-135 197.719v-41c0-4.566 3.715-8.281 8.281-8.281h23.256v57.562h-23.256c-4.566 0-8.281-3.715-8.281-8.281zm361 254.281h-73.286v-31h-30v31h-245.428v-31h-30v31h-73.286v-24.928c0-10.803 6.897-20.322 17.163-23.687l136.373-44.703c12.94 11.036 41.98 32.461 72.465 32.461 30.42 0 59.644-21.353 72.71-32.38l136.127 44.623c10.265 3.364 17.162 12.884 17.162 23.686z"/>
	</symbol>

	<symbol id="shield" enable-background="new 0 0 24 24" viewBox="0 0 24 24" xmlns="http://www.w3.org/2000/svg">
		<path d="m18.75 24h-13.5c-1.241 0-2.25-1.01-2.25-2.25v-8.25h-1.75c-.689 0-1.25-.561-1.25-1.25 0-.329.134-.652.367-.888l11.102-11.141c.281-.283.781-.283 1.063 0l11.1 11.14c.234.237.368.56.368.889 0 .689-.561 1.25-1.25 1.25h-1.75v8.25c0 1.24-1.009 2.25-2.25 2.25zm-16.901-12h1.901c.414 0 .75.336.75.75v9c0 .413.336.75.75.75h13.5c.414 0 .75-.337.75-.75v-9c0-.414.336-.75.75-.75h1.901l-10.151-10.187zm20.718.417h.01z"/><path d="m14.75 20h-5.5c-.965 0-1.75-.785-1.75-1.75v-3.5c0-.965.785-1.75 1.75-1.75h5.5c.965 0 1.75.785 1.75 1.75v3.5c0 .965-.785 1.75-1.75 1.75zm-5.5-5.5c-.138 0-.25.112-.25.25v3.5c0 .138.112.25.25.25h5.5c.138 0 .25-.112.25-.25v-3.5c0-.138-.112-.25-.25-.25z"/><path d="m13.75 14.5h-3.5c-.414 0-.75-.336-.75-.75v-2.25c0-1.379 1.122-2.5 2.5-2.5s2.5 1.121 2.5 2.5v2.25c0 .414-.336.75-.75.75zm-2.75-1.5h2v-1.5c0-.552-.449-1-1-1s-1 .448-1 1z"/>
	</symbol>




    
</svg>