<svg width="160" height="119" viewBox="0 0 190 119" fill="none" xmlns="http://www.w3.org/2000/svg">
    <g filter="url(#filter0_d_102_48)">
        <path
            d="M78.7739 71.5971C78.2456 72.0128 77.6995 72.4093 77.1357 72.7868L60.419 59.5694L50.2199 62.0255H48.7006L59.5219 48.9993L78.7739 71.5971Z"
            fill="url(#paint0_linear_102_48)" />
        <path
            d="M72.0923 75.3996L71.9975 75.4417C71.7161 75.5562 71.4187 75.639 71.1293 75.7429L70.8849 75.8227C70.3833 75.9869 69.8882 76.1691 69.3785 76.3046L67.5779 76.7187L67.1294 76.8242L66.6696 76.8859L65.7516 77.0139L64.8336 77.1434C64.6343 77.1735 64.4327 77.1886 64.2307 77.1886C63.1906 77.3392 59.9623 77.1886 59.9623 77.1886L59.6504 77.1735C59.4887 77.1729 59.3274 77.1594 59.1681 77.1329L58.2855 77.0049L57.4013 76.8799L56.9608 76.8211L56.5123 76.7142L54.7116 76.2986C54.1184 76.148 53.5461 75.9206 52.9609 75.7369C52.6731 75.6375 52.3757 75.5547 52.0927 75.4357L51.2567 75.0683L50.4272 74.7113L50.0076 74.5321C49.9577 74.508 49.9079 74.4809 49.8597 74.4553C49.7761 74.4102 49.6908 74.362 49.6072 74.3183L48.8034 73.8756L59.9077 60.6009L72.0923 75.3996Z"
            fill="url(#paint1_linear_102_48)" />
        <path
            d="M87.0133 60.1416L86.9458 60.3554C86.8059 60.8885 86.5439 61.387 86.3285 61.9005L85.9957 62.664L85.8349 63.0495L85.6291 63.42C85.3542 63.9124 85.0809 64.4063 84.8028 64.9033C84.5246 65.4002 84.1597 65.8475 83.8382 66.3234L83.3462 67.0312C83.1661 67.257 82.9716 67.4724 82.7851 67.6953C82.3993 68.1305 82.0472 68.5913 81.6388 69.0099C81.3527 69.3111 81.0601 69.5987 80.7578 69.8849L59.3113 45.0312L78.1711 50.588L87.0133 60.1416Z"
            fill="url(#paint2_linear_102_48)" />
        <path
            d="M80.7578 69.8924C80.1276 70.4948 79.4663 71.0635 78.7739 71.5986L59.5155 48.9993L48.6942 62.0255H45.4933L59.3113 45.0312L80.7578 69.8924Z"
            fill="url(#paint3_linear_102_48)" />
        <path
            d="M78.7738 71.5971C78.4748 71.8321 78.1704 72.0605 77.8607 72.2823L59.5154 50.6995L50.2133 62.0255H48.6941L59.5154 48.9993L78.7738 71.5971Z"
            fill="#B3B3B3" />
        <path d="M71.4027 55.3978H75.4251V57.9172L71.4027 55.3978Z" fill="#999999" />
        <path d="M79.8543 55.5229V57.9158H75.4251V55.3979L75.5907 55.2624L77.7964 53.8664L79.8382 55.5229H79.8543Z"
            fill="#CCCCCC" />
        <path d="M77.528 55.684H76.9943V56.1839H77.528V55.684Z" fill="#333333" />
        <path d="M78.2949 55.684H77.7611V56.1839H78.2949V55.684Z" fill="#333333" />
        <path d="M77.528 56.3572H76.9943V56.8571H77.528V56.3572Z" fill="#333333" />
        <path d="M78.2949 56.3572H77.7611V56.8571H78.2949V56.3572Z" fill="#333333" />
        <path d="M71.4011 55.3978H74.5489L77.8447 53.2654L74.4926 53.2805L71.4011 55.3978Z"
            fill="url(#paint4_linear_102_48)" />
        <path
            d="M74.549 55.3978H75.3753L75.5907 55.2623L77.7965 53.8663L79.8382 55.5213H80.5826L77.8447 53.2654L74.549 55.3978Z"
            fill="#333333" />
        <path
            d="M60.1119 56.4897L46.4932 72.4359C45.0347 71.4225 43.6883 70.2748 42.474 69.01C42.0641 68.5913 41.712 68.1305 41.3261 67.6953C41.1397 67.4739 40.9467 67.2556 40.7651 67.0327L40.2731 66.3249C40.1123 66.087 39.9516 65.8551 39.7828 65.6216L45.2666 59.8841L60.1119 56.4897Z"
            fill="url(#paint5_linear_102_48)" />
        <path
            d="M74.5441 74.2987L74.4959 74.3243C74.3624 74.3951 74.2322 74.4749 74.0972 74.5382L73.6759 74.7114L72.8351 75.0698L72.0924 75.395L59.9013 60.5919L48.797 73.8665L48.0157 73.4389C47.498 73.1166 46.9905 72.7808 46.4932 72.4314L60.1119 56.4897L74.5441 74.2987Z"
            fill="url(#paint6_linear_102_48)" />
        <path
            d="M72.0923 75.3996L71.9975 75.4417C71.7161 75.5562 71.4187 75.639 71.1293 75.7429L70.8849 75.8227L59.9012 62.4592L49.8597 74.4553C49.7761 74.4102 49.6908 74.362 49.6072 74.3183L48.8034 73.8756L59.9077 60.6009L72.0923 75.3996Z"
            fill="#B3B3B3" />
        <path
            d="M59.3548 68.6741V70.6318H57.2648C57.2648 70.1126 57.485 69.6146 57.8769 69.2475C58.2689 68.8803 58.8005 68.6741 59.3548 68.6741V68.6741Z"
            fill="#333333" />
        <path
            d="M62.2051 70.6287H60.1151V68.671C60.6694 68.671 61.201 68.8773 61.593 69.2444C61.9849 69.6116 62.2051 70.1095 62.2051 70.6287V70.6287Z"
            fill="#333333" />
        <path d="M59.3531 71.3787H57.2679V73.3319H59.3531V71.3787Z" fill="#333333" />
        <path d="M62.2036 71.3787H60.1184V73.3319H62.2036V71.3787Z" fill="#333333" />
        <path
            d="M91.19 53.6661V53.7188V53.8257V54.0396C91.1563 55.1901 91.2157 56.309 91.0067 57.5649C90.9183 58.1673 90.8781 58.8103 90.7447 59.4127C90.6112 60.0151 90.4601 60.6174 90.317 61.2288C90.2013 61.8448 89.9537 62.4336 89.7543 63.0359L89.4328 63.9395L89.272 64.3913L89.0647 64.8265L88.2222 66.5794C87.9328 67.1622 87.5583 67.7073 87.2255 68.278L86.7078 69.1259C86.5165 69.3984 86.3107 69.662 86.1113 69.9315C85.7014 70.4616 85.3204 71.0188 84.8782 71.5323C84.4361 72.0459 83.9586 72.5383 83.4876 73.0383C83.3686 73.1617 83.2561 73.2912 83.1339 73.4117L82.7448 73.7566L81.9619 74.4388L81.179 75.1285C80.9137 75.3559 80.6179 75.5471 80.3365 75.7594C79.7658 76.166 79.2112 76.6028 78.6147 76.9883C76.1992 78.5345 73.5578 79.7458 70.7724 80.5844L68.6374 81.1205L68.1021 81.25L67.5555 81.3298L66.4606 81.488L65.3658 81.6385C65.0008 81.7003 64.6311 81.6898 64.2629 81.7184L63.1568 81.7741L62.6022 81.8012L62.1874 81.8208H62.1183C62.0621 81.8251 62.0056 81.8251 61.9495 81.8208L59.8788 81.7184L59.3611 81.6913C59.1811 81.6881 59.0016 81.6725 58.8241 81.6446L57.6987 81.4849L56.5734 81.3193L56.0091 81.235L55.4721 81.1085L53.3226 80.5844C50.5361 79.746 47.8912 78.5402 45.4675 77.0033C44.8694 76.6208 44.3132 76.1856 43.7392 75.779C43.4595 75.5652 43.1653 75.3724 42.9 75.145L42.1187 74.4523L41.3422 73.7596L40.9547 73.4162C40.8325 73.2943 40.72 73.1647 40.601 73.0413L39.2104 71.5353C38.7683 71.0218 38.3856 70.4646 37.9773 69.9346C37.7779 69.665 37.5722 69.3999 37.3792 69.1289L36.8616 68.2795C36.5304 67.7088 36.1542 67.1637 35.8664 66.5794C35.5786 65.9951 35.3069 65.4063 35.0288 64.8235C34.0385 62.4547 33.3182 60.0226 33.0915 57.5951C32.8841 56.3903 32.9308 55.1856 32.9034 54.0034V53.7836V53.6179C32.9034 53.6104 32.9034 53.514 32.9034 53.514L32.942 53.0924C32.9677 52.8092 32.994 52.5271 33.0208 52.246L33.098 51.4072C33.1152 51.1232 33.1522 50.8404 33.2089 50.5609L33.5481 48.8562C33.6108 48.5761 33.6494 48.29 33.7314 48.0204C33.8134 47.7509 33.9002 47.4843 33.9838 47.2178C34.151 46.6867 34.3171 46.1591 34.4822 45.6351C34.688 45.1261 34.9147 44.6276 35.1253 44.1291C35.5063 43.1187 36.0738 42.2046 36.5722 41.289C36.8216 40.8363 37.1019 40.3992 37.4114 39.9803C37.704 39.5587 37.9939 39.141 38.2811 38.7274C40.5143 35.8245 43.3191 33.348 46.5446 31.4312L46.7456 31.3123V31.6421L46.7102 31.6646C43.6154 33.6446 40.9886 36.1999 38.9933 39.1716L38.2329 40.4396C37.959 40.8587 37.7162 41.295 37.5062 41.7453C37.085 42.6563 36.5979 43.5524 36.2989 44.5463C36.1381 45.0342 35.9532 45.5206 35.7957 46.0176C35.6778 46.5195 35.5593 47.0305 35.4404 47.5506C35.3809 47.8081 35.3214 48.0641 35.2603 48.3246C35.1992 48.5851 35.1912 48.8442 35.1526 49.1047C35.0883 49.6227 35.024 50.1468 34.9597 50.6739C34.9254 50.9462 34.9109 51.2204 34.9163 51.4946C34.9163 51.7747 34.9163 52.0563 34.905 52.3379L34.8905 53.1857V53.6134L34.9275 53.9778C35.0481 55.0757 35.0802 56.19 35.3616 57.2909C35.7298 59.5106 36.5995 61.6656 37.6123 63.7558C37.8974 64.2648 38.1831 64.7773 38.4692 65.2933C38.7602 65.8038 39.1364 66.2722 39.4644 66.7661L39.974 67.4995C40.1621 67.7314 40.3631 67.9513 40.5576 68.1877C40.9547 68.6395 41.3213 69.1153 41.7441 69.5505C43.4468 71.3048 45.3802 72.8496 47.498 74.1481C48.0462 74.4493 48.5976 74.7505 49.1491 75.0517C49.2873 75.1255 49.4208 75.2023 49.5623 75.2745L49.9979 75.4598L50.8677 75.8362L51.7375 76.2172C52.0301 76.3362 52.3371 76.4205 52.6378 76.5184C53.2439 76.7097 53.8371 76.9371 54.4528 77.1012L56.3194 77.5319L56.784 77.6418L57.2438 77.7051L58.1585 77.8316L59.0733 77.9671C59.2357 77.9943 59.4003 78.0085 59.5653 78.0093L59.8868 78.0228C59.8868 78.0228 63.234 78.1734 64.3112 78.0228C64.5201 78.0225 64.7286 78.0069 64.9349 77.9762L65.8883 77.8421L66.84 77.7096L67.3223 77.6449L67.787 77.5349L69.6551 77.1057C70.2692 76.9416 70.8641 76.7142 71.4702 76.5229C71.7692 76.419 72.0779 76.3347 72.3705 76.2218L73.2386 75.8408L74.11 75.4703L74.5457 75.2836C74.6887 75.2158 74.8238 75.133 74.9621 75.0622L76.6164 74.1662C78.7368 72.8682 80.6697 71.3194 82.367 69.5581C82.7899 69.1244 83.1564 68.647 83.5551 68.1952C83.7496 67.9663 83.9506 67.7434 84.1387 67.507L84.6483 66.7736C84.9699 66.2797 85.3525 65.8098 85.6435 65.2993C85.9345 64.7888 86.2158 64.2723 86.5004 63.7618L86.7142 63.3778L86.8814 62.9652L87.2255 62.167C87.4489 61.6339 87.7206 61.1129 87.8685 60.5632C88.0422 60.0181 88.2147 59.4744 88.3862 58.9323C88.547 58.3917 88.6225 57.8511 88.7479 57.3119C89.0261 56.2668 89.0695 55.0651 89.1852 53.9387L89.219 53.5607V53.1496C89.219 52.8755 89.211 52.6029 89.2061 52.3304L89.1965 51.5202C89.2035 51.2495 89.1896 50.9787 89.1547 50.71C89.0882 50.1739 89.0229 49.6413 88.9585 49.1122C88.92 48.8487 88.9071 48.5806 88.8492 48.3216C88.7914 48.0626 88.7286 47.8051 88.6692 47.5491C88.5502 47.034 88.4312 46.523 88.3123 46.016C88.1515 45.5191 87.9762 45.0312 87.8091 44.5433C87.5084 43.5539 87.0197 42.6533 86.6001 41.7423C86.3891 41.2924 86.1464 40.8562 85.8734 40.4366L85.1049 39.1716C82.9442 35.9098 80.1211 33.4492 77.388 31.6737C77.2273 31.5848 77.0858 31.4945 76.9379 31.4056V31.0593C77.1469 31.1752 77.3543 31.2972 77.5633 31.4222C81.1235 33.5172 84.1575 36.3092 86.4569 39.6063C88.7564 42.9035 90.2668 46.6277 90.8846 50.5233C90.9425 50.8057 90.9795 51.0915 90.9955 51.3786C91.0228 51.6663 91.0485 51.9554 91.0759 52.246C91.1032 52.5367 91.1273 52.8273 91.1546 53.1195L91.1948 53.5592C91.1956 53.5949 91.194 53.6306 91.19 53.6661Z"
            fill="#333333" />
        <path
            d="M93.0549 55.6749C93.0549 55.9831 93.0549 56.2929 93.0549 56.6041C93.0549 56.9158 93.0195 57.2411 93.0034 57.5603C92.9793 58.2079 92.8893 58.8419 92.8169 59.4849C92.642 60.7805 92.3734 62.0635 92.0131 63.325C91.8523 63.9695 91.6128 64.5945 91.4006 65.233C91.1498 65.8564 90.9279 66.4965 90.6289 67.1109C88.3173 72.2836 84.4455 76.7126 79.4876 79.8555C78.2196 80.6611 76.8921 81.3812 75.515 82.0104C74.1163 82.6325 72.6709 83.1579 71.1904 83.5826C69.7081 84.0042 68.1957 84.3267 66.6647 84.5479C65.8963 84.6443 65.1262 84.7437 64.3513 84.7888C63.9655 84.819 63.578 84.8491 63.1905 84.8536L61.996 84.8837C55.8499 84.8702 49.5928 83.1082 44.5816 79.86C39.6201 76.719 35.7461 72.2889 33.4355 67.1139C33.1365 66.4995 32.9146 65.8595 32.6622 65.236C32.4516 64.5975 32.2153 63.971 32.0513 63.328C31.6904 62.0656 31.4218 60.7816 31.2475 59.4849C31.1767 58.8434 31.0867 58.2064 31.0626 57.5694C31.0449 57.2501 31.0176 56.9324 31.0111 56.6161C31.0047 56.2999 31.0112 55.9836 31.0031 55.6704V55.1855L31.0256 54.7247L31.069 53.8091C31.1333 53.1902 31.1767 52.5622 31.2716 51.9583C31.6031 49.6041 32.2435 47.2971 33.1783 45.0898C35.591 39.4317 39.8352 34.6236 45.3147 31.3408C45.797 31.0532 46.2793 30.7836 46.7472 30.5321V30.7083C46.3083 30.9553 45.8661 31.2188 45.4256 31.4989C42.0497 33.6184 39.1734 36.3634 36.9741 39.5646C35.7347 41.3848 34.7187 43.3302 33.9452 45.3639C33.1276 47.5324 32.5995 49.7873 32.3729 52.0773C32.3053 52.6646 32.2909 53.2474 32.2523 53.8407C32.2523 54.1419 32.2523 54.4506 32.2523 54.7578V55.2096L32.2732 55.6478C32.286 55.949 32.3021 56.2502 32.3166 56.5514C32.3311 56.8526 32.3761 57.1537 32.4034 57.4625C32.45 58.0648 32.5642 58.6762 32.6558 59.2861C32.8734 60.5152 33.179 61.7292 33.5706 62.9199C33.7523 63.5223 34.0014 64.1111 34.2249 64.7059C34.4886 65.2872 34.7217 65.8851 35.0288 66.4543C36.1985 68.7943 37.7138 70.9686 39.5303 72.9132C40.4474 73.9023 41.4341 74.833 42.4836 75.6991C45.7016 78.3281 49.4844 80.2795 53.5766 81.4216C54.9464 81.8006 56.3433 82.088 57.7566 82.2815C59.1862 82.4644 60.6271 82.559 62.07 82.5646L63.1134 82.542C63.4719 82.542 63.8288 82.5149 64.1857 82.4908C64.9027 82.4562 65.6117 82.3673 66.3223 82.2845C71.2103 81.611 75.8437 79.8126 79.8076 77.0502C83.7715 74.2878 86.9422 70.6477 89.0357 66.4558C89.3443 65.8881 89.5758 65.2902 89.8395 64.7089C90.063 64.1066 90.3122 63.5253 90.4938 62.9214C90.8874 61.7335 91.1946 60.522 91.4134 59.2952C91.5051 58.6853 91.6192 58.0769 91.6642 57.476C91.6932 57.1748 91.7334 56.8812 91.7527 56.5725C91.7719 56.2637 91.7816 55.9535 91.7961 55.6448C91.8362 55.0545 91.7961 54.4401 91.8073 53.8498C91.7687 53.2474 91.7543 52.6586 91.6867 52.0728C91.459 49.7824 90.9303 47.527 90.1128 45.3579C89.3375 43.3247 88.3209 41.3794 87.0823 39.5586C84.8826 36.3573 82.0063 33.6118 78.6307 31.4914C78.0616 31.129 77.4946 30.7946 76.9298 30.4884V30.3258C77.5289 30.633 78.1329 30.9688 78.7417 31.3333C82.1951 33.4207 85.1828 36.1165 87.5389 39.271C88.881 41.086 90.0006 43.037 90.8765 45.0868C91.8112 47.2936 92.4516 49.6 92.7832 51.9538C92.878 52.5562 92.9198 53.1736 92.9841 53.791C93.0034 54.419 93.0661 55.0334 93.0549 55.6749Z"
            fill="url(#paint7_linear_102_48)" />
        <path
            d="M76.2001 39.006V29.0172L70.5925 26.3231L68.6633 27.8742V21.0057L62.9914 17L55.3919 19.6098V27.1393L53.0848 25.1922L47.4756 27.8772V42.6443L44.6429 43.9996V59.5091L44.8696 59.2711L47.2618 58.723L50.5994 54.6163V42.7286L53.6941 45.5522V50.8109L54.7616 49.4977V44.98L53.6668 43.9785V26.8713L57.2471 29.9931V32.7368L55.3999 34.3527V48.7177L56.3645 47.5235V34.8225L59.8017 31.8499V44.4604L69.7436 47.3879V41.798L73.0812 38.747V48.3713L78.5859 49.9947L79.0328 50.4781V40.3673L76.2001 39.006ZM65.8482 36.583L63.5283 35.4701V18.8553L67.4832 21.575V28.7928L65.8482 30.3244V36.583ZM70.0105 40.1113L68.6713 41.3417V45.0342L66.7936 44.0674V31.0171L70.0089 27.8953L70.0105 40.1113Z"
            fill="url(#paint8_linear_102_48)" />
        <path
            d="M49.7697 28.7808L48.8854 29.213V28.5338L49.7632 28.0956L49.7697 28.7808ZM49.7697 29.2973L48.8806 29.722V30.4177L49.7761 29.9991L49.7697 29.2973ZM51.2584 28.5835L50.3227 29.0353L50.334 29.7431L51.2745 29.3033L51.2584 28.5835ZM49.7809 30.5291L48.8806 30.9403V31.642L49.7873 31.2384L49.7809 30.5291ZM51.3195 31.1315L50.3549 31.5502L50.3661 32.2941L51.3307 31.8845L51.3195 31.1315ZM49.8034 33.0892L48.8806 33.4717V34.2247L49.8082 33.8407L49.8034 33.0892ZM51.3516 32.4492L50.3838 32.8468L50.3951 33.6118L51.3757 33.2187L51.3516 32.4492ZM49.8163 34.4189L48.8806 34.7834V35.5514L49.8227 35.1975L49.8163 34.4189ZM49.8275 35.7833L48.8806 36.1297V36.9127L49.8356 36.5754L49.8275 35.7833ZM51.4175 35.199L50.424 35.5574L50.4352 36.3616L51.4433 36.0062L51.4175 35.199ZM51.4529 36.6311L50.4401 36.9775L50.4513 37.8057L51.4738 37.4699L51.4529 36.6311ZM49.8533 38.622L48.8806 38.9231V39.7544L49.8613 39.4532L49.8533 38.622ZM51.4883 38.1024L50.4658 38.4187L50.4787 39.2695L51.514 38.9563L51.4883 38.1024ZM49.8726 40.0917L48.8854 40.3763V41.2287L49.879 40.9546L49.8726 40.0917Z"
            fill="white" />
        <path
            d="M46.7537 45.2314L45.5688 45.6636V44.9859L46.7457 44.5462L46.7537 45.2314ZM48.7553 45.0341L47.5029 45.4859L47.5174 46.1937L48.7794 45.7539L48.7553 45.0341ZM46.7762 46.9798L45.5688 47.3924V48.1032L46.7843 47.7011L46.7762 46.9798ZM48.7971 46.2886L47.527 46.7223L47.5415 47.4481L48.8276 47.0234L48.7971 46.2886ZM46.7907 48.2462L45.5688 48.6423V49.3727L46.8003 48.9841L46.7907 48.2462ZM48.8437 47.5761L47.5576 47.9948L47.572 48.7477L48.8678 48.3381L48.8437 47.5761ZM46.8116 49.5338L45.5737 49.9148V50.6678L46.8196 50.2958L46.8116 49.5338ZM48.9305 50.2506L47.609 50.6346L47.6251 51.4192L48.9562 51.0442L48.9305 50.2506ZM46.8405 52.2264L45.5705 52.5743V53.3619L46.8566 53.0245L46.8405 52.2264ZM48.9723 51.6436L47.6331 52.0095L47.6492 52.8152L48.9996 52.4598L48.9723 51.6436ZM49.0189 53.0742L47.6604 53.4221L47.6765 54.2488L49.0463 53.913L49.0189 53.0742ZM46.8743 55.065L45.5705 55.3738V56.205L46.8855 55.9038L46.8743 55.065ZM49.0672 54.5455L47.6894 54.8723L47.7055 55.7216L49.0961 55.4084L49.0672 54.5455ZM46.892 56.5423L45.5705 56.83V57.6944L46.9032 57.4188L46.892 56.5423Z"
            fill="white" />
        <path
            d="M74.0152 28.841L75.192 29.2792V29.9584L74.0071 29.5337L74.0152 28.841ZM73.9927 30.746L75.192 31.1631V30.4689L74.0007 30.0427L73.9927 30.746ZM71.9815 30.0442L73.2451 30.4855L73.258 29.7777L72.0056 29.3259L71.9815 30.0442ZM71.9413 31.3182L73.2274 31.7429L73.2419 31.0171L71.9654 30.5879L71.9413 31.3182ZM73.9621 33.2759L75.192 33.6645V32.9341L73.9702 32.5365L73.9621 33.2759ZM71.8979 32.6254L73.1937 33.0335L73.2097 32.2896L71.9236 31.8709L71.8979 32.6254ZM73.9461 34.5906L75.192 34.9626V34.2096L73.9557 33.8286L73.9461 34.5906ZM71.8094 35.3436L73.1422 35.7185L73.1567 34.9339L71.8336 34.5484L71.8094 35.3436ZM73.9123 37.3238L75.1984 37.6612V36.8721L73.9284 36.5257L73.9123 37.3238ZM71.7628 36.7621L73.1149 37.1175L73.1293 36.3119L71.7901 35.9459L71.7628 36.7621Z"
            fill="white" />
        <path
            d="M63.8482 37.2049L65.0234 37.6431V38.3223L63.8386 37.8901L63.8482 37.2049ZM63.8241 39.1099L65.0234 39.527V38.8328L63.8337 38.4066L63.8241 39.1099ZM61.8145 38.4081L63.0765 38.8479L63.091 38.1401L61.837 37.6883L61.8145 38.4081ZM61.7727 39.6821L63.0588 40.1068L63.0733 39.3809L61.8032 38.9472L61.7727 39.6821ZM63.7935 41.6398L65.0234 42.0284V41.298L63.8032 40.9004L63.7935 41.6398ZM63.7775 42.9545L65.0234 43.3265V42.5735L63.7951 42.197L63.7775 42.9545ZM61.6875 42.3295L63.0026 42.7226L63.017 41.9576L61.7052 41.557L61.6875 42.3295ZM61.6425 43.7075L62.9752 44.0824L62.9913 43.2978L61.6698 42.9123L61.6425 43.7075Z"
            fill="white" />
        <path
            d="M76.7065 40.914L77.8833 41.3522V42.0329L76.6984 41.6007L76.7065 40.914ZM76.684 42.8175L77.8833 43.2361V42.5419L76.692 42.1157L76.684 42.8175ZM74.6744 42.1172L75.9364 42.557L75.9509 41.8492L74.6969 41.3974L74.6744 42.1172ZM74.6326 43.3912L75.9187 43.8159L75.9316 43.0901L74.6631 42.6563L74.6326 43.3912ZM74.5892 44.6984L75.8866 45.1065L75.901 44.3626L74.6149 43.9439L74.5892 44.6984ZM76.6374 46.6636L77.8833 47.0356V46.2826L76.647 45.9001L76.6374 46.6636ZM74.5474 46.0386L75.8624 46.4317L75.8769 45.6667L74.5667 45.2646L74.5474 46.0386ZM76.6229 48.0129L77.8849 48.3668V47.6048L76.6325 47.2404L76.6229 48.0129Z"
            fill="white" />
        <path
            d="M58.5283 20.6293L57.2036 21.0615V20.3823L58.5235 19.9441L58.5283 20.6293ZM60.7293 19.2077L59.3418 19.67L59.3563 20.3597L60.755 19.908L60.7293 19.2077ZM58.5364 21.1458L57.2036 21.5705V22.2662L58.5492 21.8476L58.5364 21.1458ZM60.8193 21.6864L59.3965 22.1202L59.4126 22.846L60.8466 22.4213L60.8193 21.6864ZM58.5685 23.6441L57.2036 24.0372V24.7676L58.583 24.379L58.5685 23.6441ZM60.8643 22.9785L59.4174 23.3972L59.4335 24.1411L60.8804 23.7315L60.8643 22.9785ZM58.5862 24.9362L57.2036 25.3172V26.0702L58.6007 25.6982L58.5862 24.9362ZM60.9624 25.653L59.4801 26.0385L59.4978 26.8216L60.9913 26.4482L60.9624 25.653ZM58.6216 27.6303L57.1988 27.9767V28.7658L58.6328 28.4284L58.6216 27.6303ZM61.0621 28.4796L59.5396 28.826L59.5573 29.6543L61.0926 29.3184L61.0621 28.4796ZM61.1167 29.9509L59.5717 30.2762L59.5894 31.127L61.1473 30.8138L61.1167 29.9509Z"
            fill="white" />
        <path
            d="M36.4163 61.0285C35.4774 60.9542 34.5498 60.8443 33.6334 60.6987C33.3737 59.6782 33.1926 58.6414 33.0916 57.5966C32.8842 56.3918 32.9308 55.1871 32.9035 54.0049V53.7851V53.6194C32.9035 53.6119 32.9035 53.5155 32.9035 53.5155L32.9421 53.0939C32.9678 52.8107 32.9941 52.5286 33.0209 52.2475L33.098 51.4087C33.1152 51.1247 33.1523 50.8419 33.209 50.5624L33.5482 48.8577C33.6109 48.5776 33.6495 48.2915 33.7315 48.0219C33.8134 47.7524 33.9003 47.4858 33.9839 47.2193C34.1511 46.6882 34.3172 46.1606 34.4822 45.6365C34.688 45.1275 34.9147 44.6291 35.1253 44.1306C35.5063 43.1202 36.0738 42.2061 36.5722 41.2905C36.8217 40.8378 37.102 40.4007 37.4114 39.9818C37.704 39.5602 37.994 39.1425 38.2812 38.7289C40.5144 35.826 43.3192 33.3495 46.5447 31.4327L46.7457 31.3138V31.642L46.7103 31.6646C43.6154 33.6446 40.9887 36.1999 38.9934 39.1716L38.233 40.4396C37.9591 40.8587 37.7163 41.295 37.5063 41.7453C37.0851 42.6563 36.598 43.5524 36.2989 44.5463C36.1382 45.0342 35.9533 45.5206 35.7957 46.0175C35.6778 46.5195 35.5594 47.0305 35.4404 47.5506C35.3809 47.8081 35.3215 48.0641 35.2604 48.3246C35.1993 48.5851 35.1912 48.8442 35.1526 49.1047C35.0883 49.6227 35.024 50.1468 34.9597 50.6738C34.9254 50.9462 34.9109 51.2204 34.9163 51.4946C34.9163 51.7747 34.9163 52.0563 34.9051 52.3379L34.8906 53.1857V53.6134L34.9276 53.9778C35.0481 55.0756 35.0803 56.19 35.3616 57.2908C35.5855 58.5653 35.9387 59.8169 36.4163 61.0285V61.0285ZM32.6463 59.2937C32.5546 58.6838 32.4405 58.0784 32.3939 57.4701C32.3665 57.1689 32.3247 56.8677 32.307 56.559C32.2894 56.2503 32.2765 55.9566 32.2636 55.6554L32.2427 55.2172V54.7654C32.2427 54.4642 32.2427 54.1525 32.2427 53.8483C32.2813 53.255 32.2958 52.6722 32.3633 52.0849C32.5899 49.7949 33.118 47.54 33.9356 45.3715C34.7091 43.3378 35.7252 41.3924 36.9645 39.5722C39.1649 36.3647 42.0447 33.6143 45.4257 31.4915C45.8662 31.2114 46.3084 30.9478 46.7473 30.7008V30.5247C46.273 30.7761 45.7939 31.0457 45.3148 31.3333C39.8336 34.6165 35.5882 39.4258 33.1752 45.0854C32.2404 47.2927 31.6 49.5996 31.2685 51.9539C31.1736 52.5562 31.1302 53.1857 31.0659 53.8046L31.0225 54.7202L31 55.1811V55.666C31 55.9792 31 56.2954 31.008 56.6117C31.0161 56.9279 31.0418 57.2457 31.0595 57.5649C31.082 58.2019 31.1736 58.8389 31.2444 59.4804C31.2813 59.738 31.3231 59.9955 31.3649 60.2545C31.8762 60.3704 32.3923 60.4774 32.9115 60.5707C32.8151 60.1476 32.7283 59.7199 32.6463 59.2937ZM47.6845 59.3299L45.2618 59.884L44.4354 60.7484C48.95 60.0665 53.2632 58.5107 57.1 56.1803C60.9369 53.8498 64.213 50.7959 66.7195 47.2132L59.3113 45.0312L47.6845 59.3299ZM55.3918 19.6098L62.9913 17L68.6568 21.0057V27.8772L70.586 26.3262L71.9011 26.9586C72.4918 31.9945 71.7508 37.0891 69.7436 41.7934V41.7934V41.801C69.422 42.5579 69.0662 43.2999 68.6761 44.0267V41.3417L70.0153 40.1113V27.8953L66.7999 31.0171V44.0674L68.2468 44.8128C67.8963 45.4272 67.5244 46.0296 67.1311 46.6199L59.8081 44.4604V31.8499L56.3709 34.8225V47.5189L55.4062 48.7131V34.3527L57.2535 32.7414V29.9931L53.6667 26.8713V43.9785L54.7616 44.983V49.5007L53.6941 50.8139V45.5522L50.5993 42.7286V54.6163L47.2617 58.723L44.8695 59.2711L44.6428 59.5091V44.0071L47.4755 42.6518V27.8772L53.0847 25.1817L55.3918 27.1288V19.6098ZM63.5283 35.4701L65.8481 36.583V30.3244L67.4832 28.7928V21.575L63.5283 18.8553V35.4701Z"
            fill="url(#paint9_linear_102_48)" />
    </g>
    <path
        d="M107.078 62H102.09L102.122 58.3186H107.078C108.315 58.3186 109.359 58.0407 110.208 57.4848C111.058 56.9184 111.698 56.0951 112.128 55.0148C112.568 53.9345 112.788 52.6287 112.788 51.0974V49.9804C112.788 48.8057 112.663 47.7726 112.411 46.8811C112.17 45.9896 111.808 45.2397 111.325 44.6314C110.843 44.0231 110.25 43.5668 109.548 43.2627C108.845 42.948 108.037 42.7907 107.125 42.7907H101.996V39.0936H107.125C108.656 39.0936 110.056 39.3558 111.325 39.8802C112.605 40.3941 113.711 41.1336 114.645 42.0985C115.578 43.0634 116.297 44.2171 116.8 45.5596C117.314 46.8916 117.571 48.3757 117.571 50.0119V51.0974C117.571 52.7231 117.314 54.2072 116.8 55.5497C116.297 56.8922 115.578 58.0459 114.645 59.0108C113.722 59.9653 112.615 60.7047 111.325 61.2291C110.046 61.743 108.63 62 107.078 62ZM104.765 39.0936V62H100.045V39.0936H104.765ZM132.926 56.0059C132.926 55.5969 132.863 55.2298 132.737 54.9047C132.622 54.5691 132.402 54.2649 132.076 53.9922C131.751 53.709 131.295 53.4311 130.708 53.1584C130.12 52.8857 129.36 52.6025 128.427 52.3088C127.388 51.9732 126.402 51.5956 125.469 51.1761C124.546 50.7566 123.728 50.2689 123.015 49.713C122.312 49.1466 121.756 48.4911 121.347 47.7464C120.948 47.0018 120.749 46.1365 120.749 45.1506C120.749 44.1961 120.959 43.3309 121.378 42.5547C121.798 41.7681 122.385 41.0969 123.14 40.541C123.896 39.9746 124.787 39.5393 125.815 39.2352C126.853 38.931 127.991 38.7789 129.229 38.7789C130.917 38.7789 132.391 39.0831 133.65 39.6914C134.908 40.2997 135.884 41.1336 136.576 42.1929C137.279 43.2522 137.63 44.4636 137.63 45.8271H132.942C132.942 45.1558 132.8 44.5685 132.517 44.065C132.244 43.5511 131.825 43.1473 131.258 42.8536C130.702 42.56 130 42.4131 129.15 42.4131C128.332 42.4131 127.65 42.539 127.105 42.7907C126.56 43.0319 126.151 43.3623 125.878 43.7819C125.605 44.1909 125.469 44.6524 125.469 45.1663C125.469 45.5544 125.563 45.9057 125.752 46.2204C125.951 46.535 126.245 46.8287 126.633 47.1014C127.021 47.3741 127.498 47.6311 128.065 47.8723C128.631 48.1135 129.287 48.3495 130.031 48.5802C131.279 48.9578 132.375 49.3826 133.319 49.8546C134.274 50.3265 135.071 50.8562 135.711 51.4435C136.35 52.0309 136.833 52.6969 137.158 53.4416C137.483 54.1862 137.646 55.0305 137.646 55.9745C137.646 56.9709 137.452 57.8624 137.064 58.649C136.676 59.4356 136.114 60.1016 135.38 60.647C134.646 61.1924 133.77 61.6067 132.753 61.8899C131.736 62.1731 130.598 62.3146 129.339 62.3146C128.206 62.3146 127.089 62.1678 125.988 61.8741C124.887 61.57 123.885 61.1137 122.983 60.5054C122.092 59.8971 121.378 59.121 120.843 58.177C120.309 57.2331 120.041 56.1161 120.041 54.826H124.777C124.777 55.5392 124.887 56.1423 125.107 56.6352C125.327 57.1282 125.637 57.5267 126.035 57.8309C126.444 58.1351 126.927 58.3553 127.483 58.4917C128.049 58.628 128.668 58.6962 129.339 58.6962C130.157 58.6962 130.828 58.5808 131.353 58.3501C131.888 58.1193 132.281 57.7994 132.533 57.3904C132.795 56.9814 132.926 56.5199 132.926 56.0059ZM145.575 39.0936V62H140.855V39.0936H145.575ZM159.294 39.0936L150.216 50.4052L144.977 56.0374L144.127 51.5694L147.667 46.7238L153.504 39.0936H159.294ZM153.929 62L147.18 51.4121L150.672 48.4858L159.514 62H153.929Z"
        fill="white" />
    <defs>
        <filter id="filter0_d_102_48" x="0.85" y="0.572" width="112.056" height="117.884" filterUnits="userSpaceOnUse"
            color-interpolation-filters="sRGB">
            <feFlood flood-opacity="0" result="BackgroundImageFix" />
            <feColorMatrix in="SourceAlpha" type="matrix" values="0 0 0 0 0 0 0 0 0 0 0 0 0 0 0 0 0 0 127 0"
                result="hardAlpha" />
            <feOffset dx="-5.15" dy="8.572" />
            <feGaussianBlur stdDeviation="12.5" />
            <feComposite in2="hardAlpha" operator="out" />
            <feColorMatrix type="matrix" values="0 0 0 0 0.815686 0 0 0 0 0.00392157 0 0 0 0 0.00392157 0 0 0 0.3 0" />
            <feBlend mode="normal" in2="BackgroundImageFix" result="effect1_dropShadow_102_48" />
            <feBlend mode="normal" in="SourceGraphic" in2="effect1_dropShadow_102_48" result="shape" />
        </filter>
        <linearGradient id="paint0_linear_102_48" x1="63.7341" y1="48.29" x2="63.7341" y2="68.3142"
            gradientUnits="userSpaceOnUse">
            <stop stop-color="#4D4D4D" />
            <stop offset="0.81" stop-color="#E6E6E6" stop-opacity="0" />
        </linearGradient>
        <linearGradient id="paint1_linear_102_48" x1="60.4446" y1="60.5964" x2="60.4446" y2="77.2488"
            gradientUnits="userSpaceOnUse">
            <stop stop-color="#4D4D4D" />
            <stop offset="0.84" stop-color="#E6E6E6" stop-opacity="0" />
        </linearGradient>
        <linearGradient id="paint2_linear_102_48" x1="82.5391" y1="64.2829" x2="69.599" y2="45.8866"
            gradientUnits="userSpaceOnUse">
            <stop stop-color="#7E0000" />
            <stop offset="0.16" stop-color="#830000" />
            <stop offset="0.35" stop-color="#910000" />
            <stop offset="0.55" stop-color="#A90000" />
            <stop offset="0.76" stop-color="#CA0000" />
            <stop offset="0.88" stop-color="#E00000" />
        </linearGradient>
        <linearGradient id="paint3_linear_102_48" x1="73.7419" y1="50.2673" x2="60.5404" y2="72.5048"
            gradientUnits="userSpaceOnUse">
            <stop stop-color="#7E0000" />
            <stop offset="0.16" stop-color="#830000" />
            <stop offset="0.35" stop-color="#910000" />
            <stop offset="0.55" stop-color="#A90000" />
            <stop offset="0.76" stop-color="#CA0000" />
            <stop offset="0.88" stop-color="#E00000" />
        </linearGradient>
        <linearGradient id="paint4_linear_102_48" x1="77.8447" y1="54.3316" x2="71.4011" y2="54.3316"
            gradientUnits="userSpaceOnUse">
            <stop offset="0.12" stop-color="#E00000" />
            <stop offset="0.24" stop-color="#CA0000" />
            <stop offset="0.45" stop-color="#A90000" />
            <stop offset="0.65" stop-color="#910000" />
            <stop offset="0.84" stop-color="#830000" />
            <stop offset="1" stop-color="#7E0000" />
        </linearGradient>
        <linearGradient id="paint5_linear_102_48" x1="54.0027" y1="55.8467" x2="46.3219" y2="67.0777"
            gradientUnits="userSpaceOnUse">
            <stop stop-color="#7E0000" />
            <stop offset="0.16" stop-color="#830000" />
            <stop offset="0.35" stop-color="#910000" />
            <stop offset="0.55" stop-color="#A90000" />
            <stop offset="0.76" stop-color="#CA0000" />
            <stop offset="0.88" stop-color="#E00000" />
        </linearGradient>
        <linearGradient id="paint6_linear_102_48" x1="70.422" y1="61.015" x2="58.8514" y2="77.4639"
            gradientUnits="userSpaceOnUse">
            <stop offset="0.12" stop-color="#E00000" />
            <stop offset="0.24" stop-color="#CA0000" />
            <stop offset="0.45" stop-color="#A90000" />
            <stop offset="0.65" stop-color="#910000" />
            <stop offset="0.84" stop-color="#830000" />
            <stop offset="1" stop-color="#7E0000" />
        </linearGradient>
        <linearGradient id="paint7_linear_102_48" x1="62.0266" y1="84.8837" x2="62.0266" y2="30.3303"
            gradientUnits="userSpaceOnUse">
            <stop offset="0.12" stop-color="#E00000" />
            <stop offset="0.24" stop-color="#CA0000" />
            <stop offset="0.45" stop-color="#A90000" />
            <stop offset="0.65" stop-color="#910000" />
            <stop offset="0.84" stop-color="#830000" />
            <stop offset="1" stop-color="#7E0000" />
        </linearGradient>
        <linearGradient id="paint8_linear_102_48" x1="61.8387" y1="12.8286" x2="61.8387" y2="46.9708"
            gradientUnits="userSpaceOnUse">
            <stop stop-color="#7E0000" />
            <stop offset="0.16" stop-color="#830000" />
            <stop offset="0.35" stop-color="#910000" />
            <stop offset="0.55" stop-color="#A90000" />
            <stop offset="0.76" stop-color="#CA0000" />
            <stop offset="0.88" stop-color="#E00000" />
        </linearGradient>
        <linearGradient id="paint9_linear_102_48" x1="33.1254" y1="33.169" x2="68.4311" y2="48.8017"
            gradientUnits="userSpaceOnUse">
            <stop offset="0.24" stop-color="white" stop-opacity="0" />
            <stop offset="1" stop-color="white" stop-opacity="0.25" />
        </linearGradient>
    </defs>
</svg>