<svg xmlns="http://www.w3.org/2000/svg" viewBox="0 0 512 512"><path d="M490 188.663V98.029c0-21.505-17.495-39-39-39h-70.848C358.563 59.029 341 76.593 341 98.181v8.848c0 5.523 4.477 10 10 10h78c1.654 0 3 1.346 3 3v67.013H32.042C14.374 187.042 0 201.416 0 219.084c0 14.161 9.237 26.198 22 30.421v86.725c0 47.471 35.444 86.815 81.257 92.97l-6.7 6.7c-3.905 3.905-3.905 10.237 0 14.142a9.968 9.968 0 007.071 2.929 9.97 9.97 0 007.071-2.929l19.999-19.999h250.603l19.999 19.999a9.968 9.968 0 007.071 2.929 9.97 9.97 0 007.071-2.929c3.905-3.905 3.906-10.237 0-14.142l-6.7-6.7C454.556 423.045 490 383.701 490 336.23v-86.725c12.763-4.223 22-16.26 22-30.421s-9.237-26.197-22-30.421zm-61-91.634h-67.966c.598-10.026 8.944-18 19.118-18H451c10.477 0 19 8.523 19 19v89h-18v-67c0-12.682-10.318-23-23-23zM74 207.042h172v130.772l-1.41-.731c-12.905-6.692-28.316-6.692-41.244.01l-.07.037a24.605 24.605 0 01-22.693-.034 44.472 44.472 0 00-20.595-5.05 44.363 44.363 0 00-20.545 5.033 24.804 24.804 0 01-22.774.018l-.041-.021a44.831 44.831 0 00-41.224-.001l-1.404.727v-130.76zm-54 12.041c0-6.639 5.402-12.041 12.042-12.041H54v24.083H32.042c-6.64 0-12.042-5.402-12.042-12.042zM469.998 336.23c.002 40.7-33.11 73.812-73.811 73.812H115.812C75.112 410.042 42 376.93 42 336.23v-85.104h12v102.213c0 3.66 1.943 7.116 5.07 9.018a10.62 10.62 0 0010.343.353l15.198-7.881a24.805 24.805 0 0122.773-.019l.042.022c12.907 6.692 28.317 6.692 41.193.016l.116-.06a24.49 24.49 0 0122.588.034 44.63 44.63 0 0041.179.051l.07-.036a24.81 24.81 0 0122.81 0l15.2 7.882a10.536 10.536 0 004.857 1.178 10.57 10.57 0 005.485-1.525 10.615 10.615 0 005.074-9.021V251.126h204v85.104zm9.96-105.104H266v-24.083h213.958c6.64 0 12.042 5.402 12.042 12.042 0 6.639-5.402 12.041-12.042 12.041z"/><path d="M310.615 369.223h-.553c-5.523 0-10 4.477-10 10s4.477 10 10 10h.553c5.523 0 10-4.477 10-10s-4.477-10-10-10zm126.471-67.633c-5.523 0-10 4.477-10 10 0 31.779-25.854 57.633-57.633 57.633H341.5c-5.523 0-10 4.477-10 10s4.477 10 10 10h27.953c42.807 0 77.633-34.826 77.633-77.633 0-5.523-4.477-10-10-10zm-93.029-147.919c-5.222-1.798-10.912.982-12.708 6.206l-1.625 4.728c-1.795 5.223.984 10.912 6.207 12.708a9.963 9.963 0 003.251.546c4.151 0 8.031-2.606 9.456-6.752l1.625-4.728c1.796-5.223-.982-10.912-6.206-12.708zm11.38-33.099c-5.224-1.796-10.913.983-12.708 6.206l-1.625 4.729c-1.795 5.223.983 10.912 6.206 12.708a9.99 9.99 0 003.251.546c4.152 0 8.031-2.606 9.457-6.752l1.625-4.729c1.795-5.223-.983-10.913-6.206-12.708zm19.063 34.671c-5.523 0-10 4.477-10 10v5c0 5.523 4.477 10 10 10s10-4.477 10-10v-5c0-5.523-4.477-10-10-10zm0-35c-5.523 0-10 4.477-10 10v5c0 5.523 4.477 10 10 10s10-4.477 10-10v-5c0-5.523-4.477-10-10-10zm44.941 44.362l-1.625-4.728c-1.796-5.223-7.486-8.004-12.708-6.206-5.223 1.796-8.001 7.485-6.205 12.708l1.625 4.728c1.425 4.146 5.304 6.752 9.456 6.752a9.985 9.985 0 003.251-.546c5.223-1.795 8.001-7.485 6.206-12.708zm-11.379-33.098l-1.625-4.729c-1.796-5.223-7.483-8-12.708-6.206-5.223 1.795-8.001 7.485-6.206 12.708l1.625 4.729a10.005 10.005 0 009.457 6.752 9.985 9.985 0 003.251-.546c5.223-1.795 8.001-7.485 6.206-12.708z"/></svg>