<svg xmlns="http://www.w3.org/2000/svg" viewBox="0 0 512 512"><path d="M440 188h-8v-64c-.026-22.08-17.92-39.974-40-40H120c-22.08.026-39.974 17.92-40 40v64h-8c-39.744.048-71.952 32.256-72 72v112h16v56h40v-56h400v56h40v-56h16V260c-.048-39.744-32.256-71.952-72-72zM96 124c0-13.255 10.745-24 24-24h272c13.255 0 24 10.745 24 24v64h-24v-32c0-13.255-10.745-24-24-24h-72c-13.255 0-24 10.745-24 24v32h-32v-32c0-13.255-10.745-24-24-24h-72c-13.255 0-24 10.745-24 24v32H96v-64zm280 32v32h-88v-32a8 8 0 018-8h72a8 8 0 018 8zm-152 0v32h-88v-32a8 8 0 018-8h72a8 8 0 018 8zM40 412h-8v-40h8v40zm440 0h-8v-40h8v40zm16-56H16v-40h480v40zm0-56H16v-40c.035-30.913 25.087-55.965 56-56h368c30.913.035 55.965 25.087 56 56v40z"/></svg>