<svg xmlns="http://www.w3.org/2000/svg" viewBox="0 0 512 512"><path d="M511.428 198.408c-3.756-25.919-26.461-45.493-52.828-45.53h-.144a49.37 49.37 0 00-3.81.153v-32.169c0-23.611-19.209-42.82-42.821-42.82H288.813c-13.164 0-24.96 5.972-32.821 15.348-7.861-9.376-19.657-15.348-32.821-15.348H100.175c-23.612 0-42.821 19.209-42.821 42.82v32.17a49.72 49.72 0 00-3.825-.154h-.143c-26.352.037-49.058 19.611-52.813 45.53-1.997 13.784 1.276 27.556 9.219 38.778 6.142 8.68 14.613 15.252 24.363 19.02v122.7c0 5.522 4.477 10 10 10h13.022v35.051c0 5.522 4.477 10 10 10h27.758c4.01 0 7.631-2.395 9.202-6.084l16.582-38.967h270.562l16.582 38.967a9.999 9.999 0 009.202 6.084h27.758c5.523 0 10-4.478 10-10v-35.051h13.022c5.523 0 10-4.478 10-10v-122.7c9.75-3.768 18.222-10.34 24.363-19.02 7.944-11.222 11.218-24.994 9.22-38.778zM288.813 98.041h123.012c12.584 0 22.821 10.237 22.821 22.82v38.129a.008.008 0 01-.004.002c-.163.09-.327.18-.489.271-15.543 8.748-25.198 25.554-25.198 43.857v15.811c-17.395-6.199-39.678-9.633-63.629-9.633-30.007 0-60.24 5.668-79.334 16.697V120.862h-.001c0-12.584 10.237-22.821 22.822-22.821zm56.512 131.26c24.874 0 48.086 4.122 63.629 11.165v13.45H265.991c.075-8.376 28.072-24.615 79.334-24.615zm63.63 44.615v32.732H103.046v-32.732h305.909zm-305.909-20v-13.457c15.543-7.039 38.748-11.158 63.612-11.158 51.263 0 79.26 16.239 79.335 24.615H103.046zM77.353 120.862c0-12.583 10.238-22.82 22.821-22.82H223.17c12.584 0 22.821 10.237 22.821 22.821v105.134c-19.095-11.029-49.327-16.697-79.335-16.697-23.941 0-46.218 3.432-63.612 9.628v-15.806a51.673 51.673 0 00-1.974-14.146 50.796 50.796 0 00-3.257-8.471 47.321 47.321 0 00-.998-1.926 50.22 50.22 0 00-2.028-3.393l-.018-.028c-4.253-6.509-10.006-11.999-16.924-15.893l-.263-.146-.113-.063-.116-.064v-38.13zm10.97 293.096H77.176v-25.051h21.806l-10.659 25.051zm346.5 0h-11.146l-10.66-25.051h21.806v25.051zm30.89-174.928a10 10 0 00-7.868 9.77v120.108H54.154V357.88h330.68c5.523 0 10-4.478 10-10s-4.477-10-10-10H54.154v-89.079a10 10 0 00-7.868-9.77c-17.348-3.787-28.492-20.017-25.921-37.752 2.343-16.167 16.551-28.376 33.035-28.399h.114c3.508.005 6.893.603 10.111 1.78.075.03.15.06.226.088 1.065.399 2.116.863 3.137 1.385l.057.029.224.116.299.159.108.059c.121.066.241.132.362.2 9.257 5.21 15.008 15.337 15.008 26.428V316.65c0 5.522 4.477 10 10 10h325.909c5.523 0 10-4.478 10-10V203.122a31.9 31.9 0 01.498-5.614l.046-.249a31.306 31.306 0 01.374-1.726c.04-.163.082-.325.124-.487l.065-.242c.103-.378.213-.754.33-1.127l.042-.132c1.966-6.173 5.806-11.555 11.018-15.259a25.782 25.782 0 01.587-.405 28.217 28.217 0 011.969-1.212l.285-.157.167-.091.067-.036a30.065 30.065 0 013.622-1.638l.236-.092a29.362 29.362 0 0110.086-1.776h.115c16.498.023 30.706 12.232 33.049 28.399 2.571 17.734-8.574 33.965-25.922 37.752z"/><path d="M431.771 345.92c-.13-.629-.32-1.259-.57-1.87-.25-.6-.56-1.18-.92-1.72a9.578 9.578 0 00-1.24-1.521c-.46-.46-.98-.88-1.52-1.25a10.175 10.175 0 00-3.6-1.49 9.898 9.898 0 00-3.91 0c-.64.131-1.27.32-1.87.57-.6.25-1.18.561-1.73.92-.54.37-1.06.79-1.52 1.25a10.161 10.161 0 00-2.16 3.241c-.25.61-.44 1.24-.57 1.87-.13.649-.19 1.31-.19 1.96a9.84 9.84 0 00.76 3.82 9.896 9.896 0 003.69 4.489c.54.36 1.12.67 1.72.92a10.098 10.098 0 003.83.77 10.098 10.098 0 005.55-1.69 9.974 9.974 0 001.52-1.239c.46-.46.88-.971 1.24-1.521a10.122 10.122 0 001.69-5.549c0-.65-.07-1.311-.2-1.96z"/></svg>