<svg xmlns="http://www.w3.org/2000/svg" viewBox="0 0 430 430" width="150" height="150"><style/><g id="Layer"><path id="Layer" fill-rule="evenodd" d="M429.74 0v102.9H145.26v-6.06c0-26.7-21.72-48.42-48.42-48.42-26.7 0-48.42 21.72-48.42 48.42 0 26.7 21.72 48.42 48.42 48.42h6.05v284.48H0V0h429.74zm-12.11 90.79V12.11H12.11v405.52h78.68v-49.05H70.11v-12.1h20.68V336.3H70.11v-12.11h20.68v-18.53H43.38v-12.11h47.41v-19.17H70.11v-12.1h20.68V242.1H70.11V230h20.68v-18.16H43.38v-12.1h47.41v-42.67c-30.54-3.05-54.47-28.89-54.47-60.23 0-33.37 27.15-60.52 60.52-60.52 31.33 0 57.18 23.93 60.23 54.47h42.29V66.26h12.1v24.53h20.17V66.26h12.11v24.53h18.54V39.53h12.1v51.26h19.17V66.26h12.11v24.53h20.17V66.26h12.11v24.53h18.15V39.53h12.11v51.26h49.43z" fill="#000"/></g></svg>